<svg width="296" height="159" viewBox="0 0 296 159" fill="none" xmlns="http://www.w3.org/2000/svg">
<mask id="path-1-inside-1_741_8757" fill="white">
<path fill-rule="evenodd" clip-rule="evenodd" d="M85.1477 130.263L125.297 79.8951L85.1482 29.0203L107.625 0.538086L170.25 79.8951L107.624 158.461L85.1477 130.263ZM85.1477 130.263L62.6705 158.461L0.0458984 79.895L62.6713 0.538086L85.1482 29.0203L44.9998 79.895L85.1477 130.263Z"/>
</mask>
<path d="M125.297 79.8951L126.078 80.5184L126.573 79.8982L126.082 79.2756L125.297 79.8951ZM107.625 0.538086L108.41 -0.0814056L107.625 -1.07614L106.84 -0.0814073L107.625 0.538086ZM170.25 79.8951L171.032 80.5184L171.527 79.8982L171.035 79.2756L170.25 79.8951ZM107.624 158.461L106.842 159.084L107.624 160.065L108.406 159.084L107.624 158.461ZM62.6705 158.461L61.8885 159.084L62.6704 160.065L63.4524 159.084L62.6705 158.461ZM0.0458984 79.895L-0.739104 79.2755L-1.23044 79.8981L-0.736078 80.5183L0.0458984 79.895ZM62.6713 0.538086L63.4563 -0.0814055L62.6713 -1.07614L61.8863 -0.0814072L62.6713 0.538086ZM44.9998 79.895L44.2148 79.2755L43.7235 79.8981L44.2179 80.5183L44.9998 79.895ZM124.515 79.2718L84.3657 129.64L85.9297 130.886L126.078 80.5184L124.515 79.2718ZM84.3632 29.6397L124.512 80.5146L126.082 79.2756L85.9332 28.4008L84.3632 29.6397ZM85.9332 29.6397L108.41 1.15758L106.84 -0.0814073L84.3632 28.4008L85.9332 29.6397ZM106.84 1.15758L169.465 80.5146L171.035 79.2756L108.41 -0.0814056L106.84 1.15758ZM169.468 79.2718L106.842 157.838L108.406 159.084L171.032 80.5184L169.468 79.2718ZM108.406 157.838L85.9297 129.64L84.3657 130.886L106.842 159.084L108.406 157.838ZM84.3657 129.64L61.8885 157.838L63.4524 159.084L85.9297 130.886L84.3657 129.64ZM63.4524 157.838L0.827875 79.2717L-0.736078 80.5183L61.8885 159.084L63.4524 157.838ZM0.8309 80.5145L63.4563 1.15758L61.8863 -0.0814072L-0.739104 79.2755L0.8309 80.5145ZM61.8863 1.15758L84.3632 29.6397L85.9332 28.4008L63.4563 -0.0814055L61.8863 1.15758ZM45.7849 80.5145L85.9332 29.6397L84.3632 28.4008L44.2148 79.2755L45.7849 80.5145ZM85.9297 129.64L45.7818 79.2717L44.2179 80.5183L84.3657 130.886L85.9297 129.64Z" fill="#FF5C00" mask="url(#path-1-inside-1_741_8757)"/>
<mask id="path-3-inside-2_741_8757" fill="white">
<path fill-rule="evenodd" clip-rule="evenodd" d="M210.852 130.263L251.001 79.8951L210.852 29.0203L233.329 0.538086L295.955 79.8951L233.329 158.461L210.852 130.263ZM210.852 130.263L188.375 158.461L125.75 79.895L188.375 0.538086L210.852 29.0203L170.704 79.895L210.852 130.263Z"/>
</mask>
<path d="M251.001 79.8951L251.783 80.5184L252.277 79.8982L251.786 79.2756L251.001 79.8951ZM233.329 0.538086L234.114 -0.0814056L233.329 -1.07614L232.544 -0.0814073L233.329 0.538086ZM295.955 79.8951L296.737 80.5184L297.231 79.8982L296.74 79.2756L295.955 79.8951ZM233.329 158.461L232.547 159.084L233.328 160.065L234.11 159.084L233.329 158.461ZM188.375 158.461L187.593 159.084L188.375 160.065L189.157 159.084L188.375 158.461ZM125.75 79.895L124.965 79.2755L124.474 79.8981L124.968 80.5183L125.75 79.895ZM188.375 0.538086L189.16 -0.0814055L188.375 -1.07614L187.59 -0.0814072L188.375 0.538086ZM170.704 79.895L169.919 79.2755L169.428 79.8981L169.922 80.5183L170.704 79.895ZM250.219 79.2718L210.07 129.64L211.634 130.886L251.783 80.5184L250.219 79.2718ZM210.067 29.6397L250.216 80.5146L251.786 79.2756L211.637 28.4008L210.067 29.6397ZM211.637 29.6397L234.114 1.15758L232.544 -0.0814073L210.067 28.4008L211.637 29.6397ZM232.544 1.15758L295.17 80.5146L296.74 79.2756L234.114 -0.0814056L232.544 1.15758ZM295.173 79.2718L232.547 157.838L234.11 159.084L296.737 80.5184L295.173 79.2718ZM234.11 157.838L211.634 129.64L210.07 130.886L232.547 159.084L234.11 157.838ZM210.07 129.64L187.593 157.838L189.157 159.084L211.634 130.886L210.07 129.64ZM189.157 157.838L126.532 79.2717L124.968 80.5183L187.593 159.084L189.157 157.838ZM126.535 80.5145L189.16 1.15758L187.59 -0.0814072L124.965 79.2755L126.535 80.5145ZM187.59 1.15758L210.067 29.6397L211.637 28.4008L189.16 -0.0814055L187.59 1.15758ZM171.489 80.5145L211.637 29.6397L210.067 28.4008L169.919 79.2755L171.489 80.5145ZM211.634 129.64L171.486 79.2717L169.922 80.5183L210.07 130.886L211.634 129.64Z" fill="#FF5C00" mask="url(#path-3-inside-2_741_8757)"/>
</svg>
