<svg width="21" height="22" viewBox="0 0 21 22" fill="none" xmlns="http://www.w3.org/2000/svg">
	<path fill-rule="evenodd" clip-rule="evenodd" d="M20.6001 21.7913H16.3921V14.3255C16.3921 12.2786 15.6455 11.1347 14.0901 11.1347C12.3981 11.1347 11.5141 12.3251 11.5141 14.3255V21.7913H7.45878V7.56912H11.5141V9.48485C11.5141 9.48485 12.7335 7.13461 15.6308 7.13461C18.5268 7.13461 20.6001 8.97676 20.6001 12.7867V21.7913ZM2.62078 5.70683C1.23945 5.70683 0.120117 4.53171 0.120117 3.08242C0.120117 1.63313 1.23945 0.458008 2.62078 0.458008C4.00212 0.458008 5.12078 1.63313 5.12078 3.08242C5.12078 4.53171 4.00212 5.70683 2.62078 5.70683ZM0.526784 21.7913H4.75545V7.56912H0.526784V21.7913Z" fill="#FF5C00"/>
</svg>
