<svg width="165" height="30" viewBox="0 0 658 121" fill="none" xmlns="http://www.w3.org/2000/svg">
  <path d="M605.967 0.804688V95.3163H658V120.224H576.283V0.804688H605.967Z" fill="currentColor"></path>
  <path d="M560.889 25.7121H501.009V48.0605H543.488V71.2619H501.009V95.3163H560.889V120.224H471.325V0.804688H560.889V25.7121Z" fill="currentColor"></path>
  <path
    d="M455.186 0.804688H425.502V47.2075H417.143L380.464 0.804688H345.321L391.382 59.32L343.444 120.224H380.294L416.972 72.1149H425.502V120.224H455.186V0.804688Z"
    fill="currentColor"></path>
  <path d="M219.246 0.804688H248.93V47.2075H257.289L293.968 0.804688H329.111L283.049 59.32L330.988 120.224H294.138L257.46 72.1149H248.93V120.224H219.246V0.804688Z" fill="currentColor"
  ></path>
  <path
    d="M204.076 0.804688C204.076 0.804688 204.076 18.8881 204.076 39.7012C204.076 54.3726 196.228 69.2147 178.998 75.6974L205.099 120.224H172.345L149.484 78.7682H134.642V120.224H104.958V0.804688H204.076ZM173.88 39.7012C173.88 31.1712 173.88 25.7121 173.88 25.7121H134.642V53.8608H158.014C168.591 53.8608 173.88 48.7429 173.88 39.7012Z"
    fill="currentColor"></path>
  <path d="M89.5642 25.7121H29.6841V48.0605H72.1632V71.2619H29.6841V95.3163H89.5642V120.224H0V0.804688H89.5642V25.7121Z" fill="currentColor"></path>
  <path fill="var(--color-primary)" d="M315.323 59.391L338.478 30.3423L361.633 59.3909L338.478 87.8919L315.323 59.391Z"></path>
</svg>
