<svg width="21" height="21" viewBox="0 0 21 21" fill="none" xmlns="http://www.w3.org/2000/svg">
	<path d="M18.75 13.4141C19.6484 13.8047 20.1562 14.7812 19.8828 15.7578L19.0625 19.3125C18.9062 20.25 18.0859 20.875 17.1094 20.875C7.65625 20.875 0 13.2188 0 3.76562C0 2.78906 0.625 1.96875 1.5625 1.77344L5.11719 0.953125C6.09375 0.71875 7.07031 1.22656 7.46094 2.125L9.14062 6.03125C9.49219 6.85156 9.21875 7.82812 8.55469 8.41406L7.22656 9.46875C8.24219 11.1875 9.6875 12.6328 11.4453 13.6484L12.5 12.3594C13.0859 11.6562 14.0625 11.3828 14.9219 11.7734L18.75 13.4141ZM18.0859 15.3281C18.125 15.25 18.0859 15.1719 18.0078 15.0938L14.1797 13.4531C14.1016 13.4141 14.0234 13.4531 13.9844 13.4922L12.4219 15.4062C12.1484 15.7578 11.6406 15.8359 11.25 15.6406C8.63281 14.3516 6.48438 12.2031 5.19531 9.58594C5 9.19531 5.11719 8.72656 5.42969 8.45312L7.34375 6.89062C7.42188 6.85156 7.42188 6.77344 7.38281 6.69531L5.74219 2.86719C5.70312 2.82812 5.66406 2.75 5.58594 2.75L5.54688 2.78906L1.99219 3.60938C1.91406 3.60938 1.83594 3.6875 1.83594 3.76562C1.83594 12.1641 8.71094 19 17.1094 19C17.1875 19 17.2656 18.9219 17.2656 18.8828L18.0859 15.3281Z" fill="#FF5C00"/>
</svg>
