<svg width="38" height="54" viewBox="0 0 38 54" fill="none" xmlns="http://www.w3.org/2000/svg">
<rect x="3" y="3" width="32" height="46" fill="#0F0F0F"/>
<rect x="3" y="3" width="32" height="46" stroke="#2B2B2B"/>
<g filter="url(#filter0_d_590_10771)">
<path d="M25.5 13.5625L19.5312 19.2812C19.3438 19.4375 19.1562 19.5 19 19.5C18.8125 19.5 18.625 19.4375 18.4688 19.3125L12.4688 13.5625C12.1562 13.2812 12.1562 12.7812 12.4375 12.5C12.7188 12.1875 13.2188 12.1875 13.5 12.4688L19 17.7188L24.4688 12.4688C24.75 12.1875 25.25 12.1875 25.5312 12.5C25.8125 12.7812 25.8125 13.2812 25.5 13.5625Z" fill="#FF5C00"/>
</g>
<g filter="url(#filter1_d_590_10771)">
<path d="M25.5 24.5625L19.5312 30.2812C19.3438 30.4375 19.1562 30.5 19 30.5C18.8125 30.5 18.625 30.4375 18.4688 30.3125L12.4688 24.5625C12.1562 24.2812 12.1562 23.7812 12.4375 23.5C12.7188 23.1875 13.2188 23.1875 13.5 23.4688L19 28.7188L24.4688 23.4688C24.75 23.1875 25.25 23.1875 25.5312 23.5C25.8125 23.7812 25.8125 24.2812 25.5 24.5625Z" fill="#FF5C00"/>
</g>
<g filter="url(#filter2_d_590_10771)">
<path d="M25.5 35.5625L19.5312 41.2812C19.3438 41.4375 19.1562 41.5 19 41.5C18.8125 41.5 18.625 41.4375 18.4688 41.3125L12.4688 35.5625C12.1562 35.2812 12.1562 34.7812 12.4375 34.5C12.7188 34.1875 13.2188 34.1875 13.5 34.4688L19 39.7188L24.4688 34.4688C24.75 34.1875 25.25 34.1875 25.5312 34.5C25.8125 34.7812 25.8125 35.2812 25.5 35.5625Z" fill="#FF5C00"/>
</g>
<defs>
<filter id="filter0_d_590_10771" x="-5" y="-9" width="48" height="48" filterUnits="userSpaceOnUse" color-interpolation-filters="sRGB">
<feFlood flood-opacity="0" result="BackgroundImageFix"/>
<feColorMatrix in="SourceAlpha" type="matrix" values="0 0 0 0 0 0 0 0 0 0 0 0 0 0 0 0 0 0 127 0" result="hardAlpha"/>
<feOffset/>
<feGaussianBlur stdDeviation="6"/>
<feComposite in2="hardAlpha" operator="out"/>
<feColorMatrix type="matrix" values="0 0 0 0 1 0 0 0 0 0.360784 0 0 0 0 0 0 0 0 0.42 0"/>
<feBlend mode="normal" in2="BackgroundImageFix" result="effect1_dropShadow_590_10771"/>
<feBlend mode="normal" in="SourceGraphic" in2="effect1_dropShadow_590_10771" result="shape"/>
</filter>
<filter id="filter1_d_590_10771" x="-5" y="2" width="48" height="48" filterUnits="userSpaceOnUse" color-interpolation-filters="sRGB">
<feFlood flood-opacity="0" result="BackgroundImageFix"/>
<feColorMatrix in="SourceAlpha" type="matrix" values="0 0 0 0 0 0 0 0 0 0 0 0 0 0 0 0 0 0 127 0" result="hardAlpha"/>
<feOffset/>
<feGaussianBlur stdDeviation="6"/>
<feComposite in2="hardAlpha" operator="out"/>
<feColorMatrix type="matrix" values="0 0 0 0 1 0 0 0 0 0.360784 0 0 0 0 0 0 0 0 0.42 0"/>
<feBlend mode="normal" in2="BackgroundImageFix" result="effect1_dropShadow_590_10771"/>
<feBlend mode="normal" in="SourceGraphic" in2="effect1_dropShadow_590_10771" result="shape"/>
</filter>
<filter id="filter2_d_590_10771" x="-5" y="13" width="48" height="48" filterUnits="userSpaceOnUse" color-interpolation-filters="sRGB">
<feFlood flood-opacity="0" result="BackgroundImageFix"/>
<feColorMatrix in="SourceAlpha" type="matrix" values="0 0 0 0 0 0 0 0 0 0 0 0 0 0 0 0 0 0 127 0" result="hardAlpha"/>
<feOffset/>
<feGaussianBlur stdDeviation="6"/>
<feComposite in2="hardAlpha" operator="out"/>
<feColorMatrix type="matrix" values="0 0 0 0 1 0 0 0 0 0.360784 0 0 0 0 0 0 0 0 0.42 0"/>
<feBlend mode="normal" in2="BackgroundImageFix" result="effect1_dropShadow_590_10771"/>
<feBlend mode="normal" in="SourceGraphic" in2="effect1_dropShadow_590_10771" result="shape"/>
</filter>
</defs>
</svg>
