<svg width="21" height="21" viewBox="0 0 21 21" fill="none" xmlns="http://www.w3.org/2000/svg">
	<path d="M18.4609 0.375C19.8672 0.375 20.9609 1.50781 20.9609 2.875V14.0859C20.9609 15.4141 19.8281 16.5469 18.4609 16.5469H12.8359L7.95312 20.1797C7.64062 20.4141 7.21094 20.2188 7.21094 19.8281V16.5469H3.46094C2.05469 16.5469 0.960938 15.4531 0.960938 14.0859V2.875C0.960938 1.50781 2.05469 0.375 3.46094 0.375H18.4609ZM19.125 14.125V2.875C19.125 2.5625 18.8125 2.25 18.5 2.25H3.5C3.14844 2.25 2.875 2.5625 2.875 2.875V14.125C2.875 14.4766 3.14844 14.75 3.5 14.75H9.125V17.0938L12.25 14.75H18.5C18.8125 14.75 19.125 14.4766 19.125 14.125Z" fill="#FF5C00"/>
</svg>
