<svg width="204" height="260" viewBox="0 0 204 260" fill="none" xmlns="http://www.w3.org/2000/svg">
	<path d="M0.777344 32.1185L74.1873 0.999023V111.646L0.777344 142.765V32.1185Z" stroke="#FF5C00"/>
	<path d="M29.8742 50.8364L108.837 39.7772L80.1995 146.654L1.23665 157.713L29.8742 50.8364Z" stroke="#FF5C00"/>
	<path d="M60.6859 72.8203L139.82 82.5751L84.497 178.398L5.36245 168.643L60.6859 72.8203Z" stroke="#FF5C00"/>
	<path d="M92.3087 98.4022L166.222 128.306L87.983 206.545L14.0696 176.641L92.3087 98.4022Z" fill="#FF5C00"/>
	<path opacity="0.5" d="M123.784 127.666L187.44 175.681L91.6166 231.005L27.9614 182.99L123.784 127.666Z" fill="#FF5C00"/>
	<path opacity="0.15" d="M154.164 160.455L203.223 223.309L96.3461 251.946L47.2872 189.092L154.164 160.455Z" fill="#FF5C00"/>
</svg>
